<svg width="23" height="23" viewBox="0 0 23 23" fill="none" xmlns="http://www.w3.org/2000/svg">
<path d="M18.375 12.875C18.3768 13.1553 18.2916 13.4293 18.1312 13.6592C17.9709 13.8891 17.7432 14.0637 17.4795 14.1589L13.0469 15.7969L11.4141 20.233C11.3174 20.4957 11.1424 20.7224 10.9129 20.8825C10.6833 21.0426 10.4101 21.1285 10.1302 21.1285C9.85025 21.1285 9.57707 21.0426 9.34749 20.8825C9.1179 20.7224 8.94296 20.4957 8.84627 20.233L7.20314 15.7969L2.76705 14.1641C2.50436 14.0674 2.27765 13.8924 2.11752 13.6628C1.95738 13.4333 1.87152 13.1601 1.87152 12.8802C1.87152 12.6002 1.95738 12.3271 2.11752 12.0975C2.27765 11.8679 2.50436 11.6929 2.76705 11.5963L7.20314 9.95313L8.83595 5.51703C8.93265 5.25435 9.10759 5.02764 9.33717 4.8675C9.56676 4.70737 9.83994 4.62151 10.1199 4.62151C10.3998 4.62151 10.673 4.70737 10.9025 4.8675C11.1321 5.02764 11.3071 5.25435 11.4038 5.51703L13.0469 9.95313L17.483 11.5859C17.7468 11.682 17.9743 11.8576 18.1341 12.0885C18.2939 12.3194 18.3781 12.5942 18.375 12.875ZM13.5625 4.625H14.9375V6C14.9375 6.18234 15.0099 6.3572 15.1389 6.48614C15.2678 6.61507 15.4427 6.6875 15.625 6.6875C15.8074 6.6875 15.9822 6.61507 16.1112 6.48614C16.2401 6.3572 16.3125 6.18234 16.3125 6V4.625H17.6875C17.8699 4.625 18.0447 4.55257 18.1737 4.42364C18.3026 4.2947 18.375 4.11984 18.375 3.9375C18.375 3.75516 18.3026 3.5803 18.1737 3.45136C18.0447 3.32243 17.8699 3.25 17.6875 3.25H16.3125V1.875C16.3125 1.69266 16.2401 1.5178 16.1112 1.38886C15.9822 1.25993 15.8074 1.1875 15.625 1.1875C15.4427 1.1875 15.2678 1.25993 15.1389 1.38886C15.0099 1.5178 14.9375 1.69266 14.9375 1.875V3.25H13.5625C13.3802 3.25 13.2053 3.32243 13.0764 3.45136C12.9474 3.5803 12.875 3.75516 12.875 3.9375C12.875 4.11984 12.9474 4.2947 13.0764 4.42364C13.2053 4.55257 13.3802 4.625 13.5625 4.625ZM21.125 7.375H20.4375V6.6875C20.4375 6.50516 20.3651 6.3303 20.2362 6.20136C20.1072 6.07243 19.9324 6 19.75 6C19.5677 6 19.3928 6.07243 19.2639 6.20136C19.1349 6.3303 19.0625 6.50516 19.0625 6.6875V7.375H18.375C18.1927 7.375 18.0178 7.44743 17.8889 7.57636C17.7599 7.7053 17.6875 7.88016 17.6875 8.0625C17.6875 8.24484 17.7599 8.4197 17.8889 8.54864C18.0178 8.67757 18.1927 8.75 18.375 8.75H19.0625V9.4375C19.0625 9.61984 19.1349 9.79471 19.2639 9.92364C19.3928 10.0526 19.5677 10.125 19.75 10.125C19.9324 10.125 20.1072 10.0526 20.2362 9.92364C20.3651 9.79471 20.4375 9.61984 20.4375 9.4375V8.75H21.125C21.3074 8.75 21.4822 8.67757 21.6112 8.54864C21.7401 8.4197 21.8125 8.24484 21.8125 8.0625C21.8125 7.88016 21.7401 7.7053 21.6112 7.57636C21.4822 7.44743 21.3074 7.375 21.125 7.375Z" fill="url(#paint0_linear_46_308)"/>
<defs>
<linearGradient id="paint0_linear_46_308" x1="-3.38324" y1="16.9638" x2="28.1051" y2="16.175" gradientUnits="userSpaceOnUse">
<stop stop-color="#FF7F09" stop-opacity="0.994479"/>
<stop offset="1" stop-color="#FE3E02" stop-opacity="0.99"/>
</linearGradient>
</defs>
</svg>
